<?xml version="1.0" encoding="UTF-8" standalone="no"?>
<svg width="456" height="456" viewBox="0 0 456 456" version="1.1" xmlns="http://www.w3.org/2000/svg">
    <!-- CleanOrga Broom Icon - Original Design -->
    <g transform="translate(228, 228)">
        <!-- Broom Handle (diagonal) -->
        <rect x="-12" y="-180" width="24" height="220" rx="6" ry="6" fill="#8B4513" transform="rotate(-30)"/>

        <!-- Handle Grip Ring -->
        <ellipse cx="0" cy="-130" rx="18" ry="8" fill="#5D3A1A" transform="rotate(-30)"/>

        <!-- Broom Head Base -->
        <rect x="-60" y="40" width="120" height="35" rx="8" ry="8" fill="#D4A574"/>

        <!-- Bristles -->
        <g fill="#F5DEB3">
            <rect x="-55" y="75" width="8" height="80" rx="2"/>
            <rect x="-42" y="75" width="8" height="85" rx="2"/>
            <rect x="-29" y="75" width="8" height="90" rx="2"/>
            <rect x="-16" y="75" width="8" height="92" rx="2"/>
            <rect x="-4" y="75" width="8" height="92" rx="2"/>
            <rect x="8" y="75" width="8" height="92" rx="2"/>
            <rect x="21" y="75" width="8" height="90" rx="2"/>
            <rect x="34" y="75" width="8" height="85" rx="2"/>
            <rect x="47" y="75" width="8" height="80" rx="2"/>
        </g>

        <!-- Metal Band -->
        <rect x="-65" y="50" width="130" height="12" rx="2" ry="2" fill="#C0C0C0"/>
    </g>
</svg>
